<?xml version="1.0" encoding="utf-8"?>
<!-- Generator: Adobe Illustrator 19.0.0, SVG Export Plug-In . SVG Version: 6.00 Build 0)  -->
<svg version="1.1" id="Layer_1" xmlns="http://www.w3.org/2000/svg" xmlns:xlink="http://www.w3.org/1999/xlink" x="0px" y="0px"
	 width="50px" height="50px" viewBox="-280 372 50 50" style="enable-background:new -280 372 50 50;" xml:space="preserve">
<style type="text/css">
	.st0{fill:#6ABD45;}
	.st1{display:none;fill:none;stroke:#000000;stroke-miterlimit:10;}
</style>
<g id="XMLID_2_">
	<path id="XMLID_9_" d="M-301,432.6c-60.6,0-109.9,49.3-109.9,109.9s49.3,110,109.9,110s110-49.3,110-109.9
		C-191,482-240.4,432.6-301,432.6z M-247,626.6c-15.6,10-34.1,15.9-54,15.9s-38.4-5.8-54-15.9v-39.8c13.7-12.1,33.3-19,54.3-19
		s40,6.5,53.7,18.2V626.6z M-237,619.3v-37.6l-1.6-1.5c-15.6-14.4-37.6-22.3-62-22.3c-24.3,0-47.2,8.4-62.8,23.2l-1.6,1.4v36.8
		c-22-18.3-35.9-45.9-35.9-76.7c0-55.1,44.8-100,99.9-100s100,44.8,100,100C-201,573.4-215,600.9-237,619.3z"/>
	<path class="st0" d="M-301,442.6c-55.1,0-99.9,44.8-99.9,100c0,30.8,14,58.3,35.9,76.7v-36.8l1.6-1.5
		c15.6-14.7,38.4-23.2,62.8-23.2c24.4,0,46.4,7.9,62,22.3l1.6,1.5v37.6c22-18.3,36-45.9,36-76.7C-201,487.5-245.9,442.6-301,442.6z
		 M-301,533.4c-14.2,0-25.7-11.5-25.7-25.7c0-14.1,11.5-25.7,25.7-25.7c14.1,0,25.7,11.5,25.7,25.7
		C-275.3,521.9-286.8,533.4-301,533.4z"/>
	<path id="XMLID_15_" class="st1" d="M-301,482.1c-14.2,0-25.7,11.5-25.7,25.7c0,14.1,11.5,25.7,25.7,25.7
		c14.1,0,25.7-11.5,25.7-25.7C-275.3,493.6-286.8,482.1-301,482.1z"/>
	<path id="XMLID_16_" class="st1" d="M-355,586.9v39.8c15.6,10,34.1,15.9,54,15.9s38.4-5.8,54-15.9v-40.5
		c-13.7-11.8-32.6-18.2-53.7-18.2C-321.7,567.9-341.3,574.8-355,586.9z"/>
</g>
</svg>
