
<svg version="1.1" id="Layer_1" xmlns="http://www.w3.org/2000/svg" xmlns:xlink="http://www.w3.org/1999/xlink" x="0px" y="0px"
	 width="50px" height="50px" viewBox="-280 372 50 50" style="enable-background:new -280 372 50 50;" xml:space="preserve">
<path class="st0" d="M-417.2,648h-29.5c-1.8,0-3.2,1.4-3.2,3.2v29.5c0,1.8,1.4,3.2,3.2,3.2h29.5c1.8,0,3.2-1.4,3.2-3.2v-29.5
	C-414,649.5-415.5,648-417.2,648z M-415.4,680.8c0,1-0.8,1.8-1.8,1.8h-29.5c-1,0-1.9-0.8-1.9-1.8v-29.5c0-1,0.8-1.9,1.9-1.9h29.5
	c1,0,1.8,0.8,1.8,1.9V680.8z"/>
<path d="M-239.3,380.4h-29.5c-1,0-1.9,0.8-1.9,1.9v29.5c0,1,0.8,1.8,1.9,1.8h29.5c1,0,1.8-0.8,1.8-1.8v-29.5
	C-237.5,381.2-238.3,380.4-239.3,380.4z M-256.1,403.4l-6.6-5.9l0.9-1l5.6,5l11.5-11.9l1,1L-256.1,403.4z"/>
<polygon class="st1" points="-421.6,659.6 -434,672.4 -440.6,666.6 -439.6,665.6 -434.1,670.6 -422.6,658.7 "/>
</svg>
