<svg xmlns="http://www.w3.org/2000/svg" xmlns:xlink="http://www.w3.org/1999/xlink" width="50" height="50" viewBox="-30 -30 300 300">
  <path d="M31.2 187.3v-123h20.3l-20-21.8a121.2 121.2 0 0 0 4.3 167.6c23.2 23.1 54 35.2 86.7 35.2 30.7 0 59.6-9.8 82.2-30.1l-29.1-27.9H31.2z" class="a"/>
  <path d="M63.8 74.3H44.2v98h119.1l-18.1-18.2a38.5 38.5 0 0 1-60.6-31.8 35.6 35.6 0 0 1 6.9-21.1z" class="a"/>
  <path d="M96.9 122.4a26.3 26.3 0 0 0 39.4 22.7l-35.9-35.8a26 26 0 0 0-3.5 13.1zm52.6 0a26.3 26.3 0 0 0-40.7-22l36.4 36.3a26 26 0 0 0 4.3-14.3z" class="a"/>
  <path d="M99.6 92.3a38.5 38.5 0 0 1 54 53.8l26.6 26.9h17.5V73.7h-117zm76-14.2a18.2 18.2 0 1 1-17.4 17.2A18.2 18.2 0 0 1 175.6 78z" class="a"/>
  <path d="M209.3 36a122.1 122.1 0 0 0-86.7-36C91.8 0 62.8 12.3 40.2 32.8l28.7 29.5h141.3v125H193l20.5 18.9c43.6-47.9 42.2-123.9-4.2-170.2z" class="a"/>
  <path d="M181.7 97a6 6 0 0 0-7.3-7.3 5.9 5.9 0 0 0-4.1 4.1 6 6 0 0 0 7.3 7.3 5.9 5.9 0 0 0 4.1-4.1z" class="a"/>
</svg>