<svg xmlns="http://www.w3.org/2000/svg" xmlns:xlink="http://www.w3.org/1999/xlink" width="50" height="50" viewBox="-30 -30 300 300" >
  <path d="M62.7 180.7c0 3.2 1.8 5.3 5 5.3h28v-68h-33v62.7zm60.4-92.8l-1 .3a27.3 27.3 0 0 0-10.6 13.9l12.9 12.9h38.3v-.4c0-.2 0-18.4-12.6-26.4v-.3a14.3 14.3 0 0 1-7.4-12.8V30.8l1-.7v-3.2l-1-.7V24h-11v2.2l-2 .7v3.2l2 .7v44.3c0 5.3-3.6 9.9-8.6 12.8zM108.7 128v44h54v-.8L119.3 128h-10.6" class="a"/>
  <path d="M101.9 92.8a37.1 37.1 0 0 1 13.5-15.2l.2-.4c1.5-.9 1.1-1.6 1.1-2.2V36.7a12.2 12.2 0 0 1-1-5.3v-5.8a12.4 12.4 0 0 1 1.8-6.1c1-4.5 5.5-8.5 10.3-8.5h16.5c4.8 0 9 4 10 8.5a11.3 11.3 0 0 1 1.4 6.1v5.8a12.2 12.2 0 0 1-1 5.3v38.4c0 .6-.1 1.2 1.4 2.2l.7.4c18.6 11.6 18.9 36 18.9 37v51.5l39 38.8A123 123 0 0 0 40.5 31.7z" class="a"/>
  <path d="M136.7 128l26 25.9V128h-26m39 55.5V219c0 7.7-6.7 14-14.5 14h-50.3c-7.8 0-15.2-6.3-15.2-14v-20h-28c-10 0-19-8.4-19-18.3V107h48.7s.1-.8.1-1.1L90.9 99H48.7V86h29.8L31.8 39.9a123.2 123.2 0 0 0 174.1 173.7z" class="a"/>
  <path d="M110.9 221h50.3c1 0 1.5-1.1 1.5-2v-35h-54v35a2.5 2.5 0 0 0 2.2 2z" class="a"/>
  <path d="M162.7 184v35c0 .9-.5 2-1.5 2h-50.3a2.5 2.5 0 0 1-2.2-2v-35h54zm0-56v25.9l-26-25.9h26m0 43.2v.8h-54v-44h10.6l43.4 43.2m-67-53.2v68h-28c-3.2 0-5-2.1-5-5.3V118h33zm67-3.4v.4h-38.3l-13.1-12.9c1.8-5 4.9-10.4 10.4-14l1.4-.2c4.9-2.9 8.5-7.5 8.5-12.8V30.8l-2-.7v-3.2l2-.7V24h11v2.2l1 .7v3.2l-1 .7v44.3a14.4 14.4 0 0 0 7.4 12.8v.3c12.8 8.1 12.7 26.3 12.7 26.4z" class="a"/>
  <path d="M205.9 213.6A123.8 123.8 0 0 1 36 209.3C-10.5 163-12 88 31.8 39.9L78.5 86H48.7v13h42.2l6.7 6.9c0 .3-.1 1.1-.1 1.1H48.7v73.7c0 10 9 18.3 19 18.3h28v20c0 7.7 7.4 14 15.2 14h50.3c7.8 0 14.5-6.4 14.5-14v-35.5zm8.8-8.6l-39-38.8v-51.6c0-1-.3-25.3-18.9-37l-.6-.4c-1.5-.9-1.5-1.6-1.5-2.2V36.7a12.2 12.2 0 0 0 1-5.3v-5.8a11.2 11.2 0 0 0-1.4-6.1c-1-4.5-5.2-8.5-10-8.5h-16.5c-4.8 0-9.3 4-10.4 8.5a12.4 12.4 0 0 0-1.8 6.1v5.8a12.2 12.2 0 0 0 1 5.3v38.4c0 .6.4 1.2-1.1 2.2l-.5.4a36.9 36.9 0 0 0-13.4 15.2L40.4 31.7a123.8 123.8 0 0 1 170 4.2 122.4 122.4 0 0 1 4.3 169.1z" class="a"/>
</svg>