<svg xmlns="http://www.w3.org/2000/svg" xmlns:xlink="http://www.w3.org/1999/xlink" width="50" height="50" viewBox="-30 -70 300 300" >
  <path d="M0 .6L.4 162l235.4-.4L235.4 0zm105.4 136.3l-68.4.2v-8c9.9-8.6 22.1-13.4 34.2-13s24.1 4 34 12.4v8.6c-.2-.2.2-.2.2-.2zm15.1 0h-3.9v-15l-2.2-2a62.2 62.2 0 0 0-43.6-17.4c-16.7 0-32.9 6.2-44.3 18.4l-1.7 2v14.6H21l-.2-111.1 98.9-.2.2 110.7h.6zm99.3-12.4l-73.7.2v-13.4l73.2-.2.6 13.4zm0-36.2l-73.7.2V75.1l73.2-.2.6 13.4zm-.2-37l-73.7.2V38.2l73.2-.2.5 13.4z"/>
  <path d="M84.4 72.3a14.6 14.6 0 0 1-14.5 15 14.2 14.2 0 0 1-14.2-15 14.6 14.6 0 0 1 14.5-15 14.2 14.2 0 0 1 14.2 15z"/>
</svg>