<svg xmlns="http://www.w3.org/2000/svg" xmlns:xlink="http://www.w3.org/1999/xlink" width="50" height="50" viewBox="-30 -30 300 300" >
  <path d="M243 149a124 124 0 0 1-29.1 56.8l-57-56.8H243z" class="a"/>
  <path d="M202 215l4-2.3-60.1-60.3V204h-44v-55H2.7a124.4 124.4 0 0 0 33.2 60.1c2.5 2.5 5 4.9 7.7 5.9h29.3v13H61a120.5 120.5 0 0 0 61.8 16.6 120.4 120.4 0 0 0 61.8-16.6h-11.7v-13H202zm-55.1 13h-45v-13h45v13z" class="b"/>
  <path d="M132.9 140.1V194h-19v-61.7l-5-6.1v-9.3l24 23.2" class="c"/>
  <path d="M138.9 71.5v54.8l-1.6 1.3-28.4-28.1V71.8a40.9 40.9 0 0 1 15.4-3.1c6-.1 11.6 1.3 14.6 2.8z" class="d"/>
  <path d="M99.7 136H.7c-3.6-34 6.5-68.8 30.8-95.5l64.4 64v26.6z" class="e"/>
  <path d="M209.7 36a123.2 123.2 0 0 0-169.5-4.4l55.7 55.6v-24l8-2.9c6.4-2.3 12-3.9 19.2-3.9a55.4 55.4 0 0 1 20.1 3.8l8.7 3.1v68l-4.4 3.9-1.3.8h98.7a122 122 0 0 0-35.2-100zM123 40.2a9 9 0 1 1 9-9 9 9 0 0 1-8.9 9z" class="f"/>
</svg>