<svg xmlns="http://www.w3.org/2000/svg" xmlns:xlink="http://www.w3.org/1999/xlink" width="50" height="50" viewBox="-70 -30 300 300" >
  <path d="M99.1 108.4V212l-24.7 10.8v22.7H24.7v-22.7L0 212V108.7c14.4-8.4 31.7-12.9 49.7-12.9 23.7 0 42 7.8 49.4 12.6zM76.9 35.8c0 12.5-12 22.7-26.8 22.7S23.3 48.4 23.3 35.8s12-22.7 26.8-22.7 26.8 10.2 26.8 22.7zm98.4 18.5a8.5 8.5 0 0 1-1.4-2.4l-1-2.7a17 17 0 0 1 0-6l1.1-2.7a14.8 14.8 0 0 1 6.4-6.3l-8.1-9.9c-10.2 6-15.5 16.7-13.1 26.9a23.5 23.5 0 0 0 4.6 9.3 30.2 30.2 0 0 0 8.5 7.2l7.8-9.6a26.5 26.5 0 0 1-4.8-3.8z"/>
  <path d="M153.1 77a43.1 43.1 0 0 0 7.8 5.4l-7.8 9.6c-30-17-38.1-51.7-17.6-77.1A56.4 56.4 0 0 1 153.1 0l7.8 9.6C149.6 15.9 141.8 26 139 37.1c-3.5 14.5 1.7 29.5 14.1 39.9z"/>
</svg>