<svg xmlns="http://www.w3.org/2000/svg" xmlns:xlink="http://www.w3.org/1999/xlink" width="50" height="50" viewBox="-50 -30 300 300" >
  <path d="M177.1 30.8a102.7 102.7 0 0 0-146.6 0 106.2 106.2 0 0 0 0 148.7l73.3 71.3 73.2-71.2h.1c40.4-41.1 40.4-107.8 0-148.8zm-7.9 140.6L103.8 235l-65.4-63.6a94.6 94.6 0 0 1 0-132.5 91.5 91.5 0 0 1 130.7 0c36 36.5 36 95.9 0 132.5z" class="a"/>
  <path d="M103.7 62.9c-23 0-41.7 19-41.7 42.3s18.7 42.3 41.7 42.3 41.7-19 41.7-42.3-18.7-42.3-41.7-42.3zm0 73.1a30.8 30.8 0 1 1 30.4-30.8 30.7 30.7 0 0 1-30.4 30.8z" class="b"/>
</svg>