<svg xmlns="http://www.w3.org/2000/svg" version="1" width="50" height="50" viewBox="-280 372 50 50"><path d="M-255 385.1c-3.2 0-5.8 2.6-5.8 5.8s2.6 5.8 5.8 5.8c3.2 0 5.8-2.6 5.8-5.8s-2.6-5.8-5.8-5.8zm0 10.4c-2.5 0-4.6-2.1-4.6-4.6 0-2.6 2.1-4.6 4.6-4.6 2.5 0 4.6 2.1 4.6 4.6 0 2.5-2.1 4.6-4.6 4.6z"/><path d="M-255 378.1c-10.1 0-18.4 8.2-18.4 18.4 0 6.1 3 11.5 7.5 14.8v-.1c3 2.3 6.8 3.6 10.8 3.6 10.1 0 18.4-8.2 18.4-18.3s-8.2-18.4-18.3-18.4zm-9.7 32.5v-6.8c2.3-2.1 5.8-3.4 9.5-3.4s7 1.2 9.4 3.2v7.3c-2.7 1.7-5.8 2.6-9.2 2.6-3.6.1-6.9-1-9.7-2.9zm20-.4v-7l-.2-.2c-2.5-2.4-6.3-3.7-10.3-3.7-4.1 0-7.9 1.4-10.5 3.9l-.2.2v6.4c-3.8-3.1-6.4-8-6.4-13.3 0-9.5 7.7-17.2 17.2-17.2s17.2 7.7 17.2 17.2c0 5.5-2.7 10.5-6.8 13.7z"/></svg>