<svg xmlns="http://www.w3.org/2000/svg" xmlns:xlink="http://www.w3.org/1999/xlink" width="70" height="70" viewBox="-30 -30 150 150" >
  <path d="M68.2 43.6a6 6 0 1 0-6.1-6 6.1 6.1 0 0 0 6.1 6zm0-8.6a2.5 2.5 0 1 1-2.6 2.5 2.6 2.6 0 0 1 2.6-2.5z" class="a"/>
  <path d="M82.3 14a48.4 48.4 0 0 0-68.1 0 47.7 47.7 0 0 0 0 67.7 48.4 48.4 0 0 0 68.1 0 47.7 47.7 0 0 0 0-67.7zM16.6 79.3a44.5 44.5 0 0 1-1.2-61.7l8.1 7.9h-7.1v44h51.4l10.7 10.9a44.8 44.8 0 0 1-61.9-1.1zm23.6-36.8L53.8 56a9.8 9.8 0 0 1-15.2-8.2 9.7 9.7 0 0 1 1.6-5.3zm2.4-2.5a9.8 9.8 0 0 1 15.6 7.9 9.7 9.7 0 0 1-1.8 5.7zm5.8-5.4a13.4 13.4 0 0 0-8.3 3l-8.2-8.1h45.5v37h-8.2L58.9 56.2a13.3 13.3 0 0 0-10.5-21.6zm-10.7 5.5a13 13 0 0 0-2.6 7.8 13.4 13.4 0 0 0 21.3 10.7l7.9 7.9H20.4v-37H27zM81 77.9l-8.3-8.4h7.7v-44h-52L17.9 15.2a45 45 0 0 1 61.9 1.2A44.2 44.2 0 0 1 81 77.9z" class="a"/>
</svg>