<svg xmlns="http://www.w3.org/2000/svg" xmlns:xlink="http://www.w3.org/1999/xlink" width="50" height="50" viewBox="-50 -30 300 300" >
  <path d="M208.9 36.1a121.8 121.8 0 0 0-173.1 0 123.8 123.8 0 0 0 0 174.3 121.8 121.8 0 0 0 173.1 0 123.8 123.8 0 0 0 0-174.3zm-86.5 201.4A112.4 112.4 0 0 1 42.1 204C-1 160.6-2.1 90.6 38.9 45.8l61.3 61.7H43.3v34h90.4l65.6 65.9a112.1 112.1 0 0 1-76.9 30.1zm2.3-106H52.3v-15h56.8zm-3-15h48.6v15h-33zm83.9 84.6l-59.3-59.6h33v-34h-66.5L45.2 39.4a112.8 112.8 0 0 1 157.4 3.1c43.3 43.6 44.3 113.8 3 158.6z" class="a"/>
  <path d="M187.3 107.5h8v34h-8zm16 0h9v34h-9z" class="a"/>
</svg>