<svg xmlns="http://www.w3.org/2000/svg" xmlns:xlink="http://www.w3.org/1999/xlink" width="50" height="50" viewBox="-50 -30 300 300" >
  <path d="M208.4 36.1a121.3 121.3 0 0 0-172.7 0C-12 84.2-12 162.3 35.7 210.4a121.3 121.3 0 0 0 172.7 0c47.7-48.1 47.7-126.2 0-174.3zm-6.3 6.3c43 43.4 43.8 113.4 3 158.2l-40.4-40.5v-48.6c0-.9.1-22.1-15.6-32.2l-.7-.3c-2.5-1.5-2.7-3-2.7-3.5V39.8a8 8 0 0 0 1-4.3v-5.4c0-.9.4-2.6-.8-4.2-.5-3.4-2.9-5.5-6.6-5.5h-14.6c-3.8 0-6.9 2.1-7.5 5.5a7.4 7.4 0 0 0-1.5 4.2v5.4a8 8 0 0 0 1 4.3v35.6c0 .9.1 2.2-2 3.5l-.3.3c-6.8 4.3-10.7 10.8-12.9 16.8L45.4 39.2a112.5 112.5 0 0 1 156.7 3.2zm-78.4-7.2v-4.8l1-.6v-2.3h13v2.2l1 .6v4.8l-1 .6v39.7c0 2.9 1.5 7 6.6 10.1l.2.3c12.2 7.7 12.2 25.5 12.2 25.7v2h-38l-10.9-11.2c1.5-5.5 4.6-12.3 10.9-16.4v-.2a11.3 11.3 0 0 0 6-10.3V35.9zm-17 85.3h7.2l43.3 44h-50.5v-44zm19.8 0h30.2v31.8zm-19.8 52h50v34.3c0 2.1-.7 2.7-2.2 2.7h-45a2.5 2.5 0 0 1-2.8-2.7v-34.3zM42 204.1c-43.1-43.6-44.1-114-2.9-158.8L85 91.5H56.7v10h37.2l5.2 4.9c0 .1 0 .1-.1.1H56.7v65.3c0 7.9 6.6 14.7 14.4 14.7h26.6v20.3c0 6.1 5.6 10.7 11.8 10.7h45c6.1 0 10.2-4.7 10.2-10.7v-34l34.1 34.2A112.1 112.1 0 0 1 42 204.1zm54.7-88.6v61H71.1c-2.9 0-4.4-1.8-4.4-4.7v-56.3h30z" class="a"/>
</svg>