<svg xmlns="http://www.w3.org/2000/svg" xmlns:xlink="http://www.w3.org/1999/xlink" width="50" height="50" viewBox="-30 -70 300 300" >
  <path d="M0 0v162h235V0H0zm225 150H10V11h215v139z" class="a"/>
  <path d="M144 43h66v12h-66zm0 32h66v11h-66zm0 31h66v12h-66zm-14-84H20v118h110V22zm-24 107H43v-8c10-7.2 19.8-11.2 31.7-11.2a50.6 50.6 0 0 1 31.3 10.7v8.5zm14 0h-3v-13.7l-2.3-1.7c-10.1-9.8-24.3-15.3-39.6-15.3S45.2 104 35 114.2l-2 1.7V129h-3V33h90v96z" class="a"/>
  <path d="M74.7 95.1c13.3 0 24.1-11.6 24.1-25.9S87.9 43.3 74.7 43.3 50.5 55 50.5 69.2s10.9 25.9 24.2 25.9zm0-40.2c7.4 0 13.4 6.4 13.4 14.4s-6 14.4-13.4 14.4-13.4-6.4-13.4-14.4 6-14.5 13.4-14.5z" class="a"/>
</svg>