<svg xmlns="http://www.w3.org/2000/svg" xmlns:xlink="http://www.w3.org/1999/xlink" width="50" height="50" viewBox="-50 -30 300 300" >
  <path d="M104.6 206.8h41v11h-41z" class="a"/>
  <path d="M211.4 35.8a125.1 125.1 0 0 0-175.1 0 121 121 0 0 0 0 172.8 125.1 125.1 0 0 0 175.2 0 121 121 0 0 0-.1-172.8zm-87.5-24.7A113 113 0 0 1 203.5 44c25 24.7 35.8 57.8 32.3 90.8h-90.5l.7-.8 3.6-3.6V68.6l-7.5-2.8a47.9 47.9 0 0 0-17.8-3.4c-6.7 0-11.2 1.4-17.1 3.5l-6.6 2.7v21.8L48.8 39.8a111.3 111.3 0 0 1 75.1-28.7zm-13.3 114.6v-8.5l22 21.1v48.5h-17v-55.6zm0-24.2V76.4c5-1.8 8.8-2.9 13.9-2.9a32.7 32.7 0 0 1 13.1 2.6v49.7l-1.2 1.2zM40.9 48.1l59.7 58v24.1l2.1 4.6H12c-3.3-32 6.6-62.5 28.9-86.7zm155.5 158.7h-26.8v11h10.9a111 111 0 0 1-56.6 15 111.1 111.1 0 0 1-56.6-15h11.3v-11H51.3c-2.4-1-4.8-3.7-7-5.9a110.2 110.2 0 0 1-30.5-55.1h90.8v52h40v-48.3l55.3 55zm10.9-9.5l-52.2-51.5H234a108.3 108.3 0 0 1-26.7 51.5z" class="a"/>
  <path d="M124.1 58.8a19.3 19.3 0 1 0-19.5-19.3 19.4 19.4 0 0 0 19.5 19.3zm0-27.4a8.1 8.1 0 1 1-8.3 8.1 8.2 8.2 0 0 1 8.3-8.1z" class="a"/>
</svg>