<svg xmlns="http://www.w3.org/2000/svg" xmlns:xlink="http://www.w3.org/1999/xlink" width="50" height="50" viewBox="-70 -30 300 300" >
  <path d="M85 243.9H22v-30L0 203.7V95.3l2.2-1.4a89.4 89.4 0 0 1 51-15.5c24.6 0 46.4 9.5 52.3 16.4l1.6 1.2v107.7L85 213.9v30zm-54-10h45v-25.3l21-10.2V99.3C92 95 74.8 87.2 53 87.2S17 95.6 9 99.9v98.6l22 10.2v25.2zM53 65.3c-18.4 0-33.4-14.1-33.4-31.3S34.6 2.6 53 2.6s33.4 14.1 33.4 31.3S71.5 65.3 53 65.3zm0-53.9c-13.3 0-24 10.1-24 22.5s10.8 22.6 24 22.6S77 46.4 77 34 66.3 11.4 53 11.4zM158.3 62a25.2 25.2 0 0 1-3.7-2.9 24.2 24.2 0 0 1-3.1-3.5 23.2 23.2 0 0 1-2.3-4 22.3 22.3 0 0 1 0-18.4 23.2 23.2 0 0 1 2.3-4 24.2 24.2 0 0 1 3.1-3.5 25.1 25.1 0 0 1 3.7-2.9l5.3 7.3a15.8 15.8 0 0 0-2.3 1.8 15.2 15.2 0 0 0-1.9 2.2 14.5 14.5 0 0 0-1.5 2.5 14 14 0 0 0 0 11.5 14.5 14.5 0 0 0 1.5 2.5 15.2 15.2 0 0 0 1.9 2.2 15.9 15.9 0 0 0 2.3 1.8z" class="a"/>
  <path d="M141.8 85a54.6 54.6 0 0 1-8.1-6.3 52.4 52.4 0 0 1-6.7-7.6 50.2 50.2 0 0 1-5-8.7 48.4 48.4 0 0 1 0-39.9 50.3 50.3 0 0 1 5-8.7 52.5 52.5 0 0 1 6.7-7.6 54.4 54.4 0 0 1 8.1-6.3l5.3 7.3a45.2 45.2 0 0 0-6.7 5.2 43.5 43.5 0 0 0-5.5 6.3 41.5 41.5 0 0 0-4.2 7.2 40.1 40.1 0 0 0 0 33 41.6 41.6 0 0 0 4.2 7.2 43.5 43.5 0 0 0 5.5 6.3 45.2 45.2 0 0 0 6.7 5.2z" class="a"/>
</svg>